<?xml version="1.0" encoding="iso-8859-1"?>
<!-- Generator: Adobe Illustrator 22.0.1, SVG Export Plug-In . SVG Version: 6.00 Build 0)  -->
<svg version="1.1" id="Layer_1" xmlns="http://www.w3.org/2000/svg" xmlns:xlink="http://www.w3.org/1999/xlink" x="0px" y="0px"
	 viewBox="0 0 300 300" style="enable-background:new 0 0 300 300;" xml:space="preserve">
<rect style="fill:#FFFFFF;" width="300" height="300"/>
<g>
	<rect x="124.873" y="21" width="21.15" height="98.704"/>
	<rect x="54.37" y="21" width="21.151" height="98.704"/>
	<rect x="195.376" y="56.251" width="21.15" height="63.453"/>
	<rect x="89.621" y="21" width="21.15" height="63.453"/>
	<rect x="160.124" y="21" width="21.15" height="21.151"/>
	<rect x="195.376" y="21" width="49.352" height="21.151"/>
	<rect x="160.124" y="56.251" style="fill:#67B4D3;" width="21.15" height="63.453"/>
</g>
<line style="fill:none;stroke:#000000;stroke-width:2;stroke-miterlimit:10;" x1="20.049" y1="142.5" x2="279.049" y2="142.5"/>
<g>
	<path d="M211.08,202.214c0,12.305,0,24.61,0,36.915c-0.679,0.051-1.357,0.145-2.036,0.145
		c-39.569,0.007-79.139,0.008-118.708,0.002c-0.719,0-1.439-0.073-2.214-0.115c-0.032-0.543-0.069-0.876-0.069-1.209
		c0.008-11.003-0.136-22.009,0.103-33.007c0.102-4.685,0.691-9.416,1.611-14.015c2.43-12.147,9.67-19.984,21.858-22.784
		c4.306-0.989,8.745-1.846,13.138-1.924c15.371-0.274,30.75-0.248,46.125-0.183c3.81,0.016,7.641,0.436,11.422,0.96
		c15.841,2.197,24.325,10.049,27.369,25.31C210.331,195.573,210.623,198.91,211.08,202.214z M99.725,226.891
		c33.245,0,66.424,0,99.858,0c-0.359-10.413,0.738-20.722-1.223-30.955c-1.702-8.88-6.959-14.179-15.778-15.83
		c-3.343-0.626-6.771-1.073-10.164-1.102c-14.899-0.124-29.8-0.11-44.7-0.034c-3.199,0.016-6.425,0.306-9.587,0.802
		c-7.972,1.251-14.218,4.88-16.585,13.183c-0.726,2.546-1.389,5.195-1.49,7.819c-0.318,8.257-0.358,16.525-0.494,24.79
		C99.555,225.957,99.656,226.353,99.725,226.891z"/>
	<path d="M210.995,273.993c-40.917,0-81.834,0-122.891,0c0-4.068,0-7.993,0-12.216c0.856,0,1.717,0,2.578,0
		c39.082,0,78.164,0.002,117.247-0.002c1.022,0,2.044-0.057,3.066-0.087C210.995,265.789,210.995,269.891,210.995,273.993z"/>
	<path style="fill:#67B4D3;" d="M99.702,226.786c-0.069-0.538-0.17-0.933-0.163-1.327c0.136-8.264,0.176-16.532,0.494-24.79
		c0.101-2.624,0.764-5.273,1.49-7.819c2.366-8.303,8.612-11.933,16.585-13.183c3.162-0.496,6.388-0.785,9.587-0.802
		c14.9-0.076,29.801-0.089,44.7,0.034c3.393,0.028,6.822,0.476,10.164,1.102c8.819,1.651,14.076,6.95,15.778,15.83
		c1.961,10.233,0.865,20.542,1.223,30.955C166.125,226.786,132.946,226.786,99.702,226.786z"/>
	<g>
		<path d="M93.683,245.574h2.384l4.627,9.255h-2.104l-1.29-2.594h-4.852l-1.29,2.594h-2.104L93.683,245.574z M96.698,251.043
			l-1.823-3.646l-1.823,3.646H96.698z"/>
		<path d="M101.741,245.574h2.104v7.643c0,0.28,0.21,0.42,0.561,0.42h4.628c0.351,0,0.561-0.14,0.561-0.42v-7.643h2.104v7.572
			c0,1.122-0.841,1.683-2.244,1.683h-5.469c-1.402,0-2.244-0.561-2.244-1.683V245.574z"/>
		<path d="M113.094,245.574h11.078v1.191h-4.487v8.063h-2.104v-8.063h-4.487V245.574z"/>
		<path d="M125.429,247.256c0-1.122,0.841-1.683,2.244-1.683h5.469c1.402,0,2.244,0.561,2.244,1.683v5.89
			c0,1.122-0.841,1.683-2.244,1.683h-5.469c-1.402,0-2.244-0.561-2.244-1.683V247.256z M128.093,253.636h4.628
			c0.351,0,0.561-0.14,0.561-0.42v-6.03c0-0.28-0.21-0.421-0.561-0.421h-4.628c-0.351,0-0.561,0.141-0.561,0.421v6.03
			C127.532,253.497,127.742,253.636,128.093,253.636z"/>
		<path d="M137.062,250.412h5.048v1.262h-5.048V250.412z"/>
		<path d="M143.79,245.574h2.104v9.255h-2.104V245.574z"/>
		<path d="M147.996,245.574h5.469c2.804,0,4.487,1.122,4.487,3.365v2.524c0,2.243-1.684,3.365-4.487,3.365h-5.469V245.574z
			 M153.044,253.636c1.753,0,2.805-0.701,2.805-2.103v-2.665c0-1.402-1.052-2.104-2.805-2.104h-2.945v6.871H153.044z"/>
		<path d="M164.815,245.574h2.104v8.062h7.292v1.192h-9.396V245.574z"/>
		<path d="M179.604,245.574h2.384l4.628,9.255h-2.104l-1.29-2.594h-4.852l-1.291,2.594h-2.103L179.604,245.574z M182.619,251.043
			l-1.822-3.646l-1.823,3.646H182.619z"/>
		<path d="M187.803,245.574h7.572c1.402,0,2.244,0.561,2.244,1.683v0.911c0,0.842-0.491,1.263-1.052,1.473
			c0.561,0.141,1.191,0.631,1.191,1.473v2.033c0,1.122-0.841,1.683-2.243,1.683h-7.713V245.574z M194.954,249.08
			c0.351,0,0.562-0.141,0.562-0.421v-1.473c0-0.28-0.211-0.421-0.562-0.421h-5.048v2.314H194.954z M195.095,253.636
			c0.351,0,0.561-0.14,0.561-0.42v-2.524c0-0.28-0.21-0.421-0.561-0.421h-5.188v3.365H195.095z"/>
		<path d="M199.576,253.636h7.292c0.351,0,0.562-0.14,0.562-0.42v-2.524c0-0.28-0.211-0.421-0.562-0.421h-5.048
			c-1.402,0-2.244-0.561-2.244-1.683v-1.332c0-1.122,0.842-1.683,2.244-1.683h7.012v1.191h-6.591c-0.351,0-0.562,0.141-0.562,0.421
			v1.473c0,0.28,0.211,0.421,0.562,0.421h5.048c1.402,0,2.244,0.561,2.244,1.683v2.384c0,1.122-0.842,1.683-2.244,1.683h-7.713
			V253.636z"/>
	</g>
</g>
</svg>
